<svg xmlns="http://www.w3.org/2000/svg" width="26" height="26" viewBox="0 0 24 24" fill="none" stroke-linecap="round" stroke-linejoin="round">
  <!-- 品牌開手光標：全站可點元素 + 卡牌懸停共用（原本可點元素是紙飛機，兩種懸停光標已統一成手）。
       hotspot ~11,7。
       ① 奶油剪影：填充 #fdf9f0（與默認箭頭同底色）+ 同色粗描邊當光暈，任何背景都看得清。
          手指刻意畫到 y=16 與掌心重疊——同色疊加無縫，避免指根與掌心之間漏出空洞。
       ② 深棕線條：疊在剪影之上，只描邊不填充。 -->
  <g fill="#fdf9f0" stroke="#fdf9f0" stroke-width="3.6">
    <path d="M14 6a2 2 0 0 1 4 0v10h-4z"/>
    <path d="M10 4a2 2 0 0 1 4 0v12h-4z"/>
    <path d="M6 6a2 2 0 0 1 4 0v10H6z"/>
    <path d="M18 8a2 2 0 1 1 4 0v6a8 8 0 0 1-8 8h-2c-2.8 0-4.5-.86-5.99-2.34l-3.6-3.6a2 2 0 0 1 2.83-2.82L7 15z"/>
  </g>
  <g stroke="#6e4f2a" stroke-width="1.6">
    <path d="M18 11V6a2 2 0 0 0-2-2 2 2 0 0 0-2 2"/>
    <path d="M14 10V4a2 2 0 0 0-2-2 2 2 0 0 0-2 2v2"/>
    <path d="M10 10.5V6a2 2 0 0 0-2-2 2 2 0 0 0-2 2v8"/>
    <path d="M18 8a2 2 0 1 1 4 0v6a8 8 0 0 1-8 8h-2c-2.8 0-4.5-.86-5.99-2.34l-3.6-3.6a2 2 0 0 1 2.83-2.82L7 15"/>
  </g>
</svg>
