<svg viewBox="0 0 120 120" xmlns="http://www.w3.org/2000/svg" role="img" aria-label="Psi Vase — mono gold">
  <!-- 方向2 变体b · 单色金版：侧脸改柔金，Ψ 深金。适合页首/单色/深色场景 -->
  <circle cx="60" cy="60" r="50" fill="none" stroke="#c39a52" stroke-width="3"/>
  <path fill="#e2c68e" d="M60 16 A 44 44 0 0 0 60 104 L 60 100 Q 55 92 56 84 Q 57 78 50 72 Q 57 66 53 59 Q 49 53 57 47 Q 53 42 55 37 Q 57 32 60 30 Z"/>
  <path fill="#e2c68e" d="M60 16 A 44 44 0 0 1 60 104 L 60 100 Q 65 92 64 84 Q 63 78 70 72 Q 63 66 67 59 Q 71 53 63 47 Q 67 42 65 37 Q 63 32 60 30 Z"/>
  <g fill="none" stroke="#9a7448" stroke-width="5.5" stroke-linecap="round" stroke-linejoin="round" transform="translate(35,34) scale(0.5)">
    <path d="M35 30 L35 55 Q35 70 50 70 Q65 70 65 55 L65 30"/><path d="M50 26 L50 88"/><path d="M41 88 L59 88"/>
  </g>
</svg>
