<svg viewBox="0 0 120 120" xmlns="http://www.w3.org/2000/svg" role="img" aria-label="Psi Orbit — chip pills">
  <!-- 方向3 变体b · 实线细环 + 网站同款「胶囊 chip」散布环上（呼应维度 chip 样式）+ 中心 Ψ -->
  <defs><linearGradient id="d3bp" x1="0" y1="0" x2="0" y2="1"><stop offset="0" stop-color="#d8b46a"/><stop offset="1" stop-color="#b3873f"/></linearGradient></defs>
  <circle cx="60" cy="60" r="43" fill="none" stroke="#c39a52" stroke-width="1.6" opacity="0.4"/>
  <!-- 四枚胶囊（fig-pill 风格），数量仅示意 -->
  <g fill="#faf4e8" stroke="#c9b48a" stroke-width="1.6">
    <rect x="49" y="10" width="22" height="12" rx="6"/>
    <rect x="9" y="54" width="22" height="12" rx="6"/>
    <rect x="89" y="54" width="22" height="12" rx="6"/>
    <rect x="49" y="98" width="22" height="12" rx="6"/>
  </g>
  <g fill="#c39a52"><circle cx="60" cy="16" r="2.4"/><circle cx="20" cy="60" r="2.4"/><circle cx="100" cy="60" r="2.4"/><circle cx="60" cy="104" r="2.4"/></g>
  <g fill="none" stroke="url(#d3bp)" stroke-width="7" stroke-linecap="round" stroke-linejoin="round" transform="translate(27,27) scale(0.66)">
    <path d="M35 30 L35 55 Q35 70 50 70 Q65 70 65 55 L65 30"/><path d="M50 26 L50 84"/><path d="M40 84 L60 84"/>
  </g>
</svg>
